<?xml version="1.0" standalone="no"?>
<!DOCTYPE svg PUBLIC "-//W3C//DTD SVG 20010904//EN"
 "http://www.w3.org/TR/2001/REC-SVG-20010904/DTD/svg10.dtd">
<svg version="1.0" xmlns="http://www.w3.org/2000/svg"
 width="281.000000pt" height="281.000000pt" viewBox="0 0 281.000000 281.000000"
 preserveAspectRatio="xMidYMid meet">
<metadata>
Created by potrace 1.11, written by Peter Selinger 2001-2013
</metadata>
<g transform="translate(0.000000,281.000000) scale(0.100000,-0.100000)"
fill="#000000" stroke="none">
<path d="M728 2775 c-3 -28 -6 -30 -50 -33 l-48 -3 0 -44 0 -44 -47 -3 -48 -3
-3 -47 -3 -47 -57 -3 -57 -3 -5 -45 c-5 -45 -5 -45 -45 -46 l-40 0 -3 -47 -3
-46 -47 -3 -47 -3 -3 -47 -3 -47 -47 -3 -47 -3 -5 -45 -5 -45 -45 -5 -45 -5
-1 -43 c-1 -24 -6 -48 -13 -55 -14 -14 -16 -318 -2 -332 6 -6 11 -30 13 -55
l3 -45 48 -3 47 -3 0 -428 c0 -383 -2 -430 -16 -435 -9 -3 -20 -3 -25 0 -6 3
-21 3 -35 0 -24 -6 -25 -8 -22 -94 l3 -87 43 -3 42 -3 0 45 c0 57 3 58 170 54
l125 -3 3 -47 3 -48 55 0 54 0 0 95 0 94 -152 3 -153 3 -3 603 c-2 478 0 602
10 603 7 1 29 2 48 3 l35 1 5 95 5 95 44 5 c45 5 45 5 45 45 l1 40 63 3 62 3
0 -45 0 -45 48 -3 47 -3 5 -95 5 -95 38 0 c23 0 41 -6 47 -15 6 -9 10 -390 10
-986 l0 -971 1029 1 c566 1 1032 3 1035 6 2 3 8 40 12 83 l7 77 -51 0 -52 0
-2 193 -3 192 -47 3 -47 3 -3 47 -3 47 -45 5 -45 5 -3 48 -3 47 -44 0 -44 0
-3 -48 -3 -47 -47 -3 -48 -3 0 -44 0 -44 -47 -3 -48 -3 -3 -47 -3 -47 -47 -3
-47 -3 -3 -47 -3 -48 -222 -2 -222 -3 -5 -45 -5 -45 -40 0 -40 0 -3 92 -3 92
-47 3 -47 3 -3 47 -3 47 -67 3 -67 3 -3 47 -3 48 -44 0 -44 0 -3 48 -3 47 -42
3 -42 3 -3 -48 -3 -48 -45 -5 -45 -5 -5 -45 -5 -45 -47 -3 -48 -3 -2 -192 -3
-192 -70 0 -70 0 -3 605 c-1 333 0 615 3 628 5 19 12 22 50 22 l45 0 0 139 0
140 -47 3 -48 3 -3 110 c-4 153 -3 157 56 153 l47 -3 3 -46 c2 -37 7 -48 23
-52 27 -7 26 -57 -1 -64 -16 -4 -20 -14 -20 -48 0 -34 4 -44 20 -48 18 -5 20
-14 20 -111 l0 -106 45 0 44 0 3 158 3 157 363 3 362 2 0 -50 0 -50 120 0 120
0 0 39 c0 21 6 44 13 50 9 7 120 12 343 13 l329 3 3 78 3 77 49 0 50 0 0 184
c0 203 2 196 -65 196 l-34 0 -3 93 -3 92 -47 3 -47 3 -3 47 -3 47 -45 5 c-45
5 -45 5 -48 48 -3 40 -4 42 -37 42 -50 0 -65 9 -65 39 l0 26 -840 0 -839 0 -3
-30z m1449 -714 l42 -1 3 -42 3 -43 48 -3 48 -3 -3 -47 -3 -47 -135 -2 c-265
-3 -240 0 -240 -27 0 -34 -9 -37 -89 -30 -61 6 -70 9 -73 28 -3 21 -6 21 -313
24 -232 2 -311 5 -317 15 -4 6 -8 26 -8 42 0 58 4 59 167 53 81 -3 175 -3 208
1 52 5 60 9 57 25 -2 10 -1 29 2 42 l6 22 277 -3 c153 -1 297 -3 320 -4z
m-925 -1638 l3 -48 48 -3 47 -3 0 -44 0 -44 63 -3 62 -3 0 -50 0 -50 -65 0
-65 0 -3 48 -3 47 -44 0 -44 0 -3 48 -3 47 -47 3 -48 3 0 50 0 49 49 0 50 0 3
-47z"/>
<path d="M314 1857 c-3 -8 -4 -45 -2 -83 l3 -69 133 -3 132 -3 0 86 0 85 -44
0 c-44 0 -45 0 -48 -37 -3 -38 -3 -38 -48 -38 -44 0 -45 1 -50 35 -4 31 -9 35
-38 38 -21 2 -34 -2 -38 -11z"/>
<path d="M2715 1798 c-3 -7 -4 -119 -3 -248 l3 -235 45 0 45 0 0 245 0 245
-43 3 c-28 2 -44 -1 -47 -10z"/>
<path d="M315 1577 c-4 -13 -5 -50 -3 -82 l3 -60 133 -3 133 -3 -3 83 -3 83
-40 0 c-38 0 -40 -2 -45 -35 -5 -34 -7 -35 -52 -38 -45 -3 -48 -2 -48 22 0 42
-10 56 -41 56 -21 0 -30 -6 -34 -23z"/>
<path d="M1585 1508 c-2 -7 -6 -29 -7 -48 -3 -34 -5 -35 -48 -40 l-45 -5 -3
-52 -3 -53 95 0 96 0 0 48 c0 55 12 72 51 72 52 0 59 -8 59 -67 l0 -54 43 3
42 3 5 55 c6 61 -4 56 105 52 l45 -2 0 -49 c0 -57 15 -74 62 -69 32 3 33 2 36
-40 2 -24 9 -45 15 -47 7 -2 116 -6 242 -9 127 -3 231 -6 233 -6 1 0 2 -63 2
-139 0 -152 0 -151 60 -141 l35 5 3 188 2 187 -229 0 c-126 0 -236 3 -245 6
-12 5 -16 20 -16 60 l0 53 -47 3 -48 3 -3 48 -3 47 -265 0 c-203 0 -266 -3
-269 -12z"/>
<path d="M933 1423 c-8 -3 -13 -24 -13 -53 0 -39 4 -52 20 -60 19 -10 20 -21
20 -199 l0 -189 34 -4 c19 -2 39 -2 45 0 7 2 11 51 11 148 l0 144 213 2 212 3
3 43 3 42 -204 0 c-170 0 -207 3 -217 15 -8 9 -30 15 -56 15 l-44 0 0 50 c0
49 -3 53 -27 43z"/>
<path d="M314 1306 c-13 -33 0 -51 36 -51 32 0 35 2 35 30 0 27 -4 30 -33 33
-22 2 -34 -2 -38 -12z"/>
<path d="M490 1285 c0 -35 0 -35 45 -35 45 0 45 0 45 35 0 35 0 35 -45 35 -45
0 -45 0 -45 -35z"/>
<path d="M1682 1158 l3 -143 170 0 170 0 3 93 3 92 -36 0 c-19 0 -38 1 -42 3
-5 1 -10 -18 -13 -43 l-5 -45 -82 -3 -83 -3 0 96 0 95 -45 0 -46 0 3 -142z"/>
<path d="M397 1243 c-4 -3 -7 -26 -7 -50 0 -42 -1 -43 -34 -43 -35 0 -46 -13
-46 -51 0 -18 9 -19 136 -19 l135 0 -3 33 c-3 30 -6 32 -48 37 l-45 5 -3 48
-3 47 -38 0 c-21 0 -41 -3 -44 -7z"/>
<path d="M314 957 c-3 -8 -4 -45 -2 -83 l3 -69 35 0 c33 0 35 2 38 38 3 37 4
37 48 37 l44 0 0 45 0 45 -80 0 c-58 0 -82 -4 -86 -13z"/>
<path d="M490 834 l0 -35 43 3 c39 3 42 5 45 36 3 32 3 32 -42 32 -46 0 -46 0
-46 -36z"/>
<path d="M1067 854 c-4 -4 -7 -25 -7 -46 l0 -38 46 0 45 0 -3 43 c-3 40 -4 42
-38 45 -20 2 -39 0 -43 -4z"/>
<path d="M1805 851 l-220 -6 -1 -30 c0 -16 1 -34 3 -40 2 -6 101 -10 271 -10
l267 0 0 45 0 45 -50 1 c-27 0 -149 -2 -270 -5z"/>
<path d="M2520 814 l0 -45 42 3 c46 3 55 17 44 64 -5 20 -12 24 -46 24 l-40 0
0 -46z"/>
<path d="M1787 654 c-4 -4 -7 -25 -7 -46 l0 -39 78 3 77 3 0 40 0 40 -70 3
c-39 1 -74 0 -78 -4z"/>
<path d="M120 515 l0 -45 140 0 140 0 0 45 0 45 -140 0 -140 0 0 -45z"/>
<path d="M24 446 c-3 -8 -4 -27 -2 -43 3 -26 7 -28 43 -28 40 0 40 0 43 43 l3
42 -41 0 c-26 0 -43 -5 -46 -14z"/>
<path d="M412 418 l3 -43 53 -3 52 -3 0 45 0 46 -56 0 -55 0 3 -42z"/>
<path d="M248 362 l-128 -3 0 -39 0 -40 141 0 140 0 -3 42 c-2 23 -7 42 -13
42 -5 1 -67 0 -137 -2z"/>
<path d="M24 256 c-3 -8 -4 -27 -2 -43 3 -25 7 -28 46 -31 l42 -3 0 45 0 46
-40 0 c-26 0 -43 -5 -46 -14z"/>
<path d="M410 225 l0 -45 55 0 55 0 0 45 0 45 -55 0 -55 0 0 -45z"/>
<path d="M120 125 l0 -45 140 0 140 0 0 45 0 45 -140 0 -140 0 0 -45z"/>
<path d="M418 69 c-5 -3 -8 -19 -6 -35 3 -27 6 -29 56 -32 l53 -3 -3 38 c-3
37 -3 38 -46 38 -24 0 -48 -3 -54 -6z"/>
<path d="M25 60 c-3 -5 -3 -21 1 -35 5 -21 12 -25 45 -25 38 0 39 1 39 35 0
34 -1 35 -39 35 -22 0 -42 -4 -46 -10z"/>
</g>
</svg>
